<?xml version="1.0" standalone="no"?><!DOCTYPE svg PUBLIC "-//W3C//DTD SVG 1.1//EN" "http://www.w3.org/Graphics/SVG/1.1/DTD/svg11.dtd"><svg t="1559553844954" class="icon" style="" viewBox="0 0 1024 1024" version="1.1" xmlns="http://www.w3.org/2000/svg" p-id="7999" xmlns:xlink="http://www.w3.org/1999/xlink" width="32" height="32"><defs><style type="text/css"></style></defs><path d="M922.427138 956.955024 104.601848 956.955024 104.601848 660.120502 37.923216 660.120502 37.923216 1023.497557 83.870688 1023.497557 83.870688 1023.661286 956.895161 1023.661286 956.895161 1023.497557 989.10577 1023.497557 989.10577 660.120502 922.427138 660.120502Z" p-id="8000"></path><path d="M1019.990175 279.496645c-0.382717-9.851369-2.63706-19.556405-6.708795-28.90226l0.414439-0.477884-1.840928-3.145643c-1.178849-2.016937-117.753891-201.187115-119.951953-205.042933-12.231579-23.569812-25.830295-41.590234-78.766948-41.590234l-602.278119 0c-47.269583 0-67.074651 22.164812-81.46029 46.160319l-115.239628 196.778712-0.245593 0.419556-0.62217 1.76725 0 0.01228c-5.634324 10.918677-8.770757 22.452361-9.329483 34.310434-0.105401 0.448208-0.202615 1.046842-0.202615 1.772366l0 175.838797c0 86.527702 67.167772 156.921959 149.72607 156.921959 47.107901 0 91.252307-23.210631 119.502721-62.455447 28.27088 39.243793 72.41324 62.455447 119.497605 62.455447 47.097668 0 91.249237-23.212678 119.522164-62.455447 28.251438 39.245839 72.384587 62.455447 119.477139 62.455447 47.099714 0 91.251284-23.210631 119.525234-62.457494 28.272927 39.247886 72.415286 62.457494 119.499651 62.457494 82.560344 0 149.727093-70.394257 149.727093-156.921959l0-175.73135C1020.263397 280.797267 1020.136507 280.07379 1019.990175 279.496645zM109.93532 201.107297c37.642319-63.013149 62.326511-104.137779 73.386404-122.261555 6.922666-11.402701 14.391778-15.641235 27.562752-15.641235l602.278119 0c13.528108 0 18.658965 0.753153 27.549449 15.569604 15.691377 26.114774 57.828057 96.352465 73.405847 122.333186L109.93532 201.107297zM870.532211 551.451524c-49.224098 0-89.270163-42.192961-89.270163-94.054119l0-25.077142c0-17.33276-13.548574-31.432896-30.202882-31.432896-16.680914 0-30.250978 14.100136-30.250978 31.432896l0 25.077142c0 51.861158-40.036855 94.054119-89.249697 94.054119-49.225121 0-89.26914-42.192961-89.26914-94.054119l0-25.077142c0-17.33276-13.561877-31.432896-30.229488-31.432896-16.681938 0-30.253024 14.100136-30.253024 31.432896l0 25.077142c0 51.861158-40.047088 94.054119-89.270163 94.054119-49.211818 0-89.248673-42.192961-89.248673-94.054119l0-25.077142c0-17.33276-13.558807-31.432896-30.225395-31.432896-16.668635 0-30.229488 14.100136-30.229488 31.432896l0 25.077142c0 51.861158-40.036855 94.054119-89.248673 94.054119-49.224098 0-89.270163-42.192961-89.270163-94.054119l0-175.436638c0.432859-10.123568 8.572236-18.037818 18.569938-18.037818l858.400405 0c9.998725 0 18.139126 7.894807 18.571984 17.989723l-0.048095 175.484733C959.807491 509.258563 919.759379 551.451524 870.532211 551.451524z" p-id="8001"></path></svg>