<?xml version="1.0" standalone="no"?><!DOCTYPE svg PUBLIC "-//W3C//DTD SVG 1.1//EN" "http://www.w3.org/Graphics/SVG/1.1/DTD/svg11.dtd"><svg t="1559554160112" class="icon" style="" viewBox="0 0 1024 1024" version="1.1" xmlns="http://www.w3.org/2000/svg" p-id="8601" xmlns:xlink="http://www.w3.org/1999/xlink" width="32" height="32"><defs><style type="text/css"></style></defs><path d="M280.08448 0.63488h464.67072c28.52864 0 54.45632 11.6736 73.216 30.43328a103.34208 103.34208 0 0 1 30.43328 73.23648v815.4112a103.36256 103.36256 0 0 1-30.43328 73.23648 103.36256 103.36256 0 0 1-73.216 30.43328H280.08448a103.36256 103.36256 0 0 1-73.216-30.43328 103.34208 103.34208 0 0 1-30.43328-73.23648V104.30464c0-28.52864 11.65312-54.45632 30.43328-73.23648A103.36256 103.36256 0 0 1 280.08448 0.63488z m0 45.42464c-15.99488 0-30.53568 6.57408-41.10336 17.12128a58.01984 58.01984 0 0 0-17.12128 41.10336v815.4112c0 15.99488 6.5536 30.53568 17.12128 41.10336a58.0608 58.0608 0 0 0 41.10336 17.12128h464.67072c15.99488 0 30.53568-6.57408 41.10336-17.12128a58.01984 58.01984 0 0 0 17.12128-41.10336V104.30464c0-15.99488-6.5536-30.53568-17.12128-41.10336a58.0608 58.0608 0 0 0-41.10336-17.12128H280.08448v-0.02048z" p-id="8602"></path><path d="M197.36576 159.51872h630.10816v45.42464H197.36576V159.51872z" p-id="8603"></path><path d="M365.11744 469.17632h99.40992l-108.7488-140.96384c-19.29216-25.02656 15.64672-52.08064 34.97984-27.01312l119.56224 154.99264 119.58272-154.99264c19.29216-25.02656 54.29248 1.98656 34.97984 27.01312l-108.76928 140.96384h103.58784c31.58016 0 31.6416 44.3392 0 44.3392h-127.24224v46.83776h127.24224c31.58016 0 31.6416 44.3392 0 44.3392h-127.24224v102.46144c0 31.60064-44.31872 31.6416-44.31872 0v-102.46144h-123.04384c-31.58016 0-31.6416-44.3392 0-44.3392h123.04384v-46.83776h-123.04384c-31.55968 0-31.62112-44.3392 0.02048-44.3392z" p-id="8604"></path><path d="M197.36576 815.3088h630.10816v45.42464H197.36576V815.3088zM452.75136 81.69472h119.33696c32.37888 0 32.44032 45.42464 0 45.42464h-119.33696c-32.3584 0.02048-32.44032-45.42464 0-45.42464z" fill="#000000" p-id="8605"></path></svg>
